<svg width="20" height="20" viewBox="0 0 20 20" fill="none" xmlns="http://www.w3.org/2000/svg">
<mask id="path-1-inside-1_34_379" fill="white">
<path d="M17.9395 5.43945L7.5 15.8887L2.06055 10.4395L2.93945 9.56055L7.5 14.1113L17.0605 4.56055L17.9395 5.43945Z"/>
</mask>
<path d="M17.9395 5.43945L7.5 15.8887L2.06055 10.4395L2.93945 9.56055L7.5 14.1113L17.0605 4.56055L17.9395 5.43945Z" fill="#00B454"/>
<path d="M17.9395 5.43945L19.0006 6.49962L20.0603 5.43896L19.0001 4.37879L17.9395 5.43945ZM7.5 15.8887L6.43839 16.9484L7.49954 18.0114L8.56116 16.9488L7.5 15.8887ZM2.06055 10.4395L0.999887 9.37879L-0.0598226 10.4385L0.998936 11.4992L2.06055 10.4395ZM2.93945 9.56055L3.99898 8.49875L2.93832 7.44036L1.87879 8.49989L2.93945 9.56055ZM7.5 14.1113L6.44048 15.1731L7.50059 16.231L8.56012 15.1725L7.5 14.1113ZM17.0605 4.56055L18.1212 3.49989L17.0611 2.43977L16.0004 3.49934L17.0605 4.56055ZM17.9395 5.43945L16.8783 4.37929L6.43884 14.8285L7.5 15.8887L8.56116 16.9488L19.0006 6.49962L17.9395 5.43945ZM7.5 15.8887L8.56161 14.829L3.12216 9.37974L2.06055 10.4395L0.998936 11.4992L6.43839 16.9484L7.5 15.8887ZM2.06055 10.4395L3.12121 11.5001L4.00011 10.6212L2.93945 9.56055L1.87879 8.49989L0.999887 9.37879L2.06055 10.4395ZM2.93945 9.56055L1.87993 10.6223L6.44048 15.1731L7.5 14.1113L8.55952 13.0495L3.99898 8.49875L2.93945 9.56055ZM7.5 14.1113L8.56012 15.1725L18.1207 5.62175L17.0605 4.56055L16.0004 3.49934L6.43988 13.0501L7.5 14.1113ZM17.0605 4.56055L15.9999 5.62121L16.8788 6.50011L17.9395 5.43945L19.0001 4.37879L18.1212 3.49989L17.0605 4.56055Z" fill="#00B454" mask="url(#path-1-inside-1_34_379)"/>
</svg>
