<svg width="24" height="24" viewBox="0 0 24 24" fill="none" xmlns="http://www.w3.org/2000/svg">
<path d="M17.8242 10.3945L16.3828 10.9922C16.4609 11.3047 16.5 11.6406 16.5 12C16.5 12.3594 16.4609 12.6953 16.3828 13.0078L17.8242 13.6055L17.2617 14.9883L15.8086 14.3906C15.4492 14.9766 14.9766 15.4492 14.3906 15.8086L14.9883 17.2617L13.6055 17.8242L13.0078 16.3828C12.6953 16.4609 12.3594 16.5 12 16.5C11.6406 16.5 11.3047 16.4609 10.9922 16.3828L10.3945 17.8242L9.01172 17.2617L9.60938 15.8086C9.02344 15.4492 8.55078 14.9766 8.19141 14.3906L6.73828 14.9883L6.17578 13.6055L7.61719 13.0078C7.53906 12.6953 7.5 12.3594 7.5 12C7.5 11.6406 7.53906 11.3047 7.61719 10.9922L6.17578 10.3945L6.73828 9.01172L8.19141 9.60938C8.55078 9.02344 9.02344 8.55078 9.60938 8.19141L9.01172 6.73828L10.3945 6.17578L10.9922 7.61719C11.3047 7.53906 11.6406 7.5 12 7.5C12.3594 7.5 12.6953 7.53906 13.0078 7.61719L13.6055 6.17578L14.9883 6.73828L14.3906 8.19141C14.9766 8.55078 15.4492 9.02344 15.8086 9.60938L17.2617 9.01172L17.8242 10.3945ZM12 15C12.4062 15 12.793 14.9219 13.1602 14.7656C13.5273 14.6094 13.8438 14.3945 14.1094 14.1211C14.375 13.8477 14.5898 13.5312 14.7539 13.1719C14.918 12.8125 15 12.4219 15 12C15 11.5938 14.9219 11.207 14.7656 10.8398C14.6094 10.4727 14.3945 10.1562 14.1211 9.89062C13.8477 9.625 13.5273 9.41016 13.1602 9.24609C12.793 9.08203 12.4062 9 12 9C11.5859 9 11.1992 9.07812 10.8398 9.23438C10.4805 9.39062 10.1641 9.60547 9.89062 9.87891C9.61719 10.1523 9.40234 10.4727 9.24609 10.8398C9.08984 11.207 9.00781 11.5938 9 12C9 12.4141 9.07812 12.8008 9.23438 13.1602C9.39062 13.5195 9.60547 13.8359 9.87891 14.1094C10.1523 14.3828 10.4688 14.5977 10.8281 14.7539C11.1875 14.9102 11.5781 14.9922 12 15ZM21.1289 20.25L18.4336 22.9336L17.5664 22.0664L18.6211 21H3V15H4.5V19.5H18.6211L17.5664 18.4336L18.4336 17.5664L21.1289 20.25ZM5.56641 6.43359L2.87109 3.75L5.56641 1.06641L6.43359 1.93359L5.37891 3H21V9H19.5V4.5H5.37891L6.43359 5.56641L5.56641 6.43359Z" fill="black"/>
</svg>
