<svg width="18" height="19" viewBox="0 0 18 19" fill="none" xmlns="http://www.w3.org/2000/svg">
<path d="M7.125 12.5C5.7625 12.5 4.6095 12.028 3.666 11.084C2.7225 10.14 2.2505 8.987 2.25 7.625C2.2495 6.263 2.7215 5.11 3.666 4.166C4.6105 3.222 5.7635 2.75 7.125 2.75C8.4865 2.75 9.63975 3.222 10.5848 4.166C11.5298 5.11 12.0015 6.263 12 7.625C12 8.175 11.9125 8.69375 11.7375 9.18125C11.5625 9.66875 11.325 10.1 11.025 10.475L15.225 14.675C15.3625 14.8125 15.4313 14.9875 15.4313 15.2C15.4313 15.4125 15.3625 15.5875 15.225 15.725C15.0875 15.8625 14.9125 15.9313 14.7 15.9313C14.4875 15.9313 14.3125 15.8625 14.175 15.725L9.975 11.525C9.6 11.825 9.16875 12.0625 8.68125 12.2375C8.19375 12.4125 7.675 12.5 7.125 12.5ZM7.125 11C8.0625 11 8.8595 10.672 9.516 10.016C10.1725 9.36 10.5005 8.563 10.5 7.625C10.4995 6.687 10.1715 5.89025 9.516 5.23475C8.8605 4.57925 8.0635 4.251 7.125 4.25C6.1865 4.249 5.38975 4.57725 4.73475 5.23475C4.07975 5.89225 3.7515 6.689 3.75 7.625C3.7485 8.561 4.07675 9.358 4.73475 10.016C5.39275 10.674 6.1895 11.002 7.125 11Z" fill="black"/>
</svg>
