<svg width="23" height="24" viewBox="0 0 23 24" fill="none" xmlns="http://www.w3.org/2000/svg">
<path d="M19.3963 19V20H2.77087V19L4.61815 17V11C4.61815 7.9 6.49313 5.17 9.23633 4.29V4C9.23633 3.46957 9.43095 2.96086 9.77738 2.58579C10.1238 2.21071 10.5937 2 11.0836 2C11.5735 2 12.0434 2.21071 12.3898 2.58579C12.7363 2.96086 12.9309 3.46957 12.9309 4V4.29C15.6741 5.17 17.5491 7.9 17.5491 11V17L19.3963 19ZM12.9309 21C12.9309 21.5304 12.7363 22.0391 12.3898 22.4142C12.0434 22.7893 11.5735 23 11.0836 23C10.5937 23 10.1238 22.7893 9.77738 22.4142C9.43095 22.0391 9.23633 21.5304 9.23633 21M18.2418 3.19L16.9302 4.61C17.7115 5.44535 18.3318 6.44034 18.7551 7.53726C19.1785 8.63417 19.3964 9.81118 19.3963 11H21.2436C21.2436 8.07 20.1722 5.25 18.2418 3.19ZM0.923602 11H2.77087C2.77087 8.6 3.65757 6.3 5.23698 4.61L3.92542 3.19C2.97212 4.21157 2.21583 5.42807 1.70051 6.76881C1.18519 8.10955 0.921104 9.54781 0.923602 11Z" fill="white"/>
<ellipse cx="14.7783" cy="4" rx="3.69455" ry="4" fill="#F60101"/>
</svg>
